<?xml version="1.0" encoding="UTF-8" standalone="no"?>
<svg
   xmlns:dc="http://purl.org/dc/elements/1.1/"
   xmlns:cc="http://creativecommons.org/ns#"
   xmlns:rdf="http://www.w3.org/1999/02/22-rdf-syntax-ns#"
   xmlns:svg="http://www.w3.org/2000/svg"
   xmlns="http://www.w3.org/2000/svg"
   width="512"
   height="512"
   viewBox="0 0 512 512"
   version="1.1"
   id="svg2237">
  <metadata
     id="metadata2239">
    <rdf:RDF>
      <cc:Work
         rdf:about="">
        <dc:format>image/svg+xml</dc:format>
        <dc:type
           rdf:resource="http://purl.org/dc/dcmitype/StillImage" />
        <dc:title></dc:title>
      </cc:Work>
    </rdf:RDF>
  </metadata>
  <style
     id="style2189"><![CDATA[
#keylines circle, #keylines rect { 
   vector-effect: non-scaling-stroke;
   fill: none;
   stroke: #0000FF;
}
#mask path, #mask rect, #mask circle, #hatching path { 
   vector-effect: non-scaling-stroke;
   fill: none;
   stroke: #FF0000;
}
#keylines, #mask {
   opacity: 0.5;
}
]]></style>
  <defs
     id="defs2197">
    <clipPath
       clipPathUnits="userSpaceOnUse"
       id="clipHatching">
      <rect
         width="8"
         height="8"
         x="0"
         y="0"
         id="rect2191" />
    </clipPath>
    <pattern
       patternUnits="userSpaceOnUse"
       width="8"
       height="8"
       id="hatching">
      <path
         d="M 1,-1 -1,1 M 9,7 7,9 M 9,-1 -1,9"
         clip-path="url(#clipHatching)"
         id="path2194" />
    </pattern>
  </defs>
  <g
     id="layer1"
     style="display:inline">
    <rect
       style="display:inline;opacity:1;fill:#000000;fill-opacity:1;stroke:#e4c547;stroke-width:12.6425;stroke-miterlimit:3;stroke-dasharray:none;stroke-opacity:1;paint-order:normal"
       id="rect4690"
       width="336"
       height="144"
       x="88"
       y="184"
       ry="57.60001" />
    <g
       id="use2273"
       style="display:inline;fill:#afd439;fill-opacity:1"
       transform="matrix(1.2279287,0,0,1.2279287,-164.77282,-332.16523)">
      <path
         style="fill:#afd439;fill-opacity:1;stroke:none;stroke-width:0.428745"
         d="m 400.5399,444.60627 c 4.3e-4,5.21946 1.14475,8.04664 6.43117,9.43239 0.58352,-3.81283 -2.48629,-8.79682 -6.43117,-9.43239 m -149.5531,1.30643 c -1.88391,0.98157 -3.42053,3.40453 -5.22383,4.696 -7.68439,5.50337 -14.66479,12.34005 -16.71462,21.86599 -1.07615,4.99917 -0.13763,10.84382 4.32089,13.98266 3.05009,2.14673 7.17848,2.43441 10.67875,1.29781 1.79944,-0.58395 4.91899,-3.03037 6.7403,-1.71198 1.58164,1.14432 1.42215,3.58131 1.40414,5.29629 -0.0562,5.42062 -3.84456,10.05407 -3.84456,15.43482 4.3e-4,2.06055 1.50661,7.1133 4.58457,5.47336 2.24706,-1.19663 2.08928,-6.29655 2.86917,-8.47458 3.02608,-8.45142 4.75735,-15.34478 1.51604,-24.00971 -0.76788,-2.05241 -1.63781,-5.27185 -3.54272,-6.57609 -2.13129,-1.45898 -3.26575,2.71995 -4.13868,3.93073 -2.21061,3.0651 -7.57763,7.70112 -11.58854,5.27871 -10.01591,-6.04874 1.83931,-20.05866 7.71526,-23.78806 2.24405,-1.42446 5.17753,-2.1944 6.94567,-4.28217 1.47745,-1.74491 2.47643,-10.60132 -1.72184,-8.41378 m 67.23407,24.84701 c 0.21051,1.63005 0.48534,3.24088 1.24979,4.7162 0.46047,0.88878 1.02899,1.7347 1.57607,2.57204 1.27294,1.94864 4.3912,4.4315 4.72091,0.42703 0.21265,-2.58276 -1.38699,-5.1028 -1.39857,-7.71527 -0.0103,-2.30845 0.96896,-4.56382 0.3057,-6.85992 -0.47763,-1.65311 -1.86504,-3.6174 -3.84285,-3.26849 -2.97506,0.52465 -2.95319,4.14502 -3.83297,6.2634 -0.85878,2.06694 -2.85502,3.72057 -4.78051,4.7225 -0.52907,-2.22887 0.0935,-4.21396 -0.12905,-6.43117 -0.27483,-2.73951 -3.7944,-7.3083 -6.22538,-3.33204 -2.02711,3.3151 -0.51192,12.07458 0.11319,15.76564 0.2581,1.52376 0.87635,4.16011 2.85587,4.12753 4.98716,-0.0815 6.26611,-8.31139 9.3878,-10.98745 m 55.73684,14.57733 c -0.24438,-1.71284 -0.15649,-3.42824 0.0776,-5.14494 0.18394,-1.3484 0.66799,-2.64278 1.34755,-3.82012 0.4639,-0.80389 1.03628,-1.54176 1.71712,-2.17416 6.83977,-6.35302 4.94386,12.32899 11.00803,11.90796 5.5874,-0.38801 9.38523,-10.19813 14.14687,-12.7736 0.70142,2.94591 -0.75717,8.64093 1.59836,10.88669 1.92764,1.8376 4.77193,-1.63266 5.55353,-3.16928 1.00541,-1.97566 0,-3.97189 -0.21737,-6.00243 -0.33356,-3.11196 0.0519,-5.94768 0.35414,-9.00364 -2.56175,0.0212 -5.25341,0.30368 -7.14761,2.23534 -2.84986,2.9063 -4.80494,8.90988 -9.57344,9.22415 -6.83034,0.45061 -3.17486,-10.69718 -7.774,-11.97887 -3.24775,-0.90513 -7.00012,5.66586 -9.80454,6.95055 0.41759,-1.94046 1.41871,-3.65243 1.84874,-5.57368 1.19277,-5.32519 -3.85613,-7.44314 -7.22178,-3.42336 -4.08765,4.88199 -3.69235,11.07217 -1.61722,16.71445 0.9874,2.6848 2.3984,6.01744 5.70402,5.14494 m 46.99988,-22.28282 c -1.39342,1.17056 1.27937,5.24587 1.40843,6.848 0.14063,1.7501 -0.23496,3.41307 -0.35072,5.14494 -0.22209,3.33006 1.77372,7.35512 5.44378,4.37148 2.99907,-2.43784 1.79001,-11.10766 8.22075,-7.72469 4.94,2.59862 3.86042,12.89622 6.18165,17.50137 0.99169,1.96794 3.67091,5.14365 6.08303,3.11183 2.56561,-2.16045 -0.45318,-5.68516 -1.37455,-7.8276 -2.38125,-5.53381 -1.20821,-15.00843 -7.51762,-18.19684 -3.58774,-1.8132 -6.77503,2.58589 -9.69049,1.37259 -2.16216,-0.89977 -4.597,-7.79982 -8.40426,-4.60108 m -67.15089,28.71399 c -8.0111,-3.3948 -13.2435,5.80435 -11.23783,12.86235 0.85577,3.01279 3.01622,6.39859 6.52163,6.31627 5.25727,-0.12348 7.25437,-7.29338 8.19418,-11.46121 2.46914,-10.94886 3.15299,-24.69528 -5.62814,-33.0236 -4.4508,-4.22138 -16.64945,-3.37123 -13.42872,5.15518 2.68009,7.09444 8.82357,2.6192 13.59379,4.91556 4.03963,1.94436 2.93433,11.8578 1.98509,15.23545 m -69.88543,-12.00485 c -3.25031,-1.28109 -7.07729,3.39223 -9.543,-0.0575 -2.71224,-3.79525 1.72784,-5.98635 4.30031,-7.50445 1.12717,-0.66545 1.67896,-2.17734 0.38844,-3.02008 -1.89548,-1.23796 -5.44463,-0.0207 -7.15061,1.07187 -4.53526,2.90436 -6.35271,9.54141 -2.48071,13.75769 5.08748,5.53982 9.32563,0.84163 14.48557,-0.64483 1.60565,-0.46262 4.38349,0.71429 6.00243,1.11345 1.68283,-3.56287 -1.59236,-9.06281 -2.31051,-12.86235 -0.29326,-1.55231 -0.36657,-3.61638 -1.29909,-4.95273 -1.5229,-2.18261 -4.29217,0.76964 -4.73849,2.38061 -1.03928,3.7501 2.85201,6.98948 2.34566,10.71828 m 66.49191,15.20029 c 4.61416,-1.16447 1.95422,10.01805 -1.75142,10.80866 -5.54282,1.18248 -2.19689,-9.81226 1.75142,-10.80866 m -10.75506,5.37946 0.42874,0.42875 z"
         id="path4693" />
    </g>
  </g>
  <g
     id="layer2"
     style="display:none" />
  <g
     id="keylines"
     style="display:none">
    <circle
       cx="256"
       cy="256"
       r="80"
       id="circle2219"
       style="display:inline" />
    <circle
       cx="256"
       cy="256"
       r="176"
       id="circle2221"
       style="display:inline" />
    <rect
       width="256"
       height="352"
       x="128"
       y="80"
       ry="24"
       id="rect2223"
       style="display:inline" />
    <rect
       width="352"
       height="256"
       x="80"
       y="128"
       ry="24"
       id="rect2225"
       style="display:inline" />
    <rectn
       width="304"
       height="304"
       x="104"
       y="104"
       ry="24" />
  </g>
  <g
     id="mask"
     style="display:none">
    <path
       d="M 0,0 V 512 H 512 V 0 Z M 64,64 H 448 V 448 H 64 Z"
       style="fill:url(#hatching)"
       id="path2228" />
    <path
       d="m 256,512 c 112.1778,0 174.5778,0 215.2889,-40.7111 C 512,430.5778 512,368.1778 512,256 512,143.8222 512,81.4222 471.2889,40.7111 430.5778,0 368.1778,0 256,0 143.8222,0 81.4222,0 40.7111,40.7111 0,81.4222 0,143.8222 0,256 0,368.1778 0,430.5778 40.7111,471.2889 81.4222,512 143.8222,512 256,512 Z"
       id="path2230" />
    <circle
       cx="256"
       cy="256"
       r="256"
       id="circle2232" />
    <rect
       width="512"
       height="512"
       x="0"
       y="0"
       ry="128"
       id="rect2234" />
  </g>
</svg>
