<?xml version="1.0" encoding="UTF-8" standalone="no"?>
<svg
   xmlns:dc="http://purl.org/dc/elements/1.1/"
   xmlns:cc="http://creativecommons.org/ns#"
   xmlns:rdf="http://www.w3.org/1999/02/22-rdf-syntax-ns#"
   xmlns:svg="http://www.w3.org/2000/svg"
   xmlns="http://www.w3.org/2000/svg"
   width="512"
   height="512"
   viewBox="0 0 512 512"
   version="1.1"
   id="svg2237">
  <metadata
     id="metadata2239">
    <rdf:RDF>
      <cc:Work
         rdf:about="">
        <dc:format>image/svg+xml</dc:format>
        <dc:type
           rdf:resource="http://purl.org/dc/dcmitype/StillImage" />
        <dc:title></dc:title>
      </cc:Work>
    </rdf:RDF>
  </metadata>
  <style
     id="style2189"><![CDATA[
#keylines circle, #keylines rect {
   vector-effect: non-scaling-stroke;
   fill: none;
   stroke: #0000FF;
}
#mask path, #mask rect, #mask circle, #hatching path {
   vector-effect: non-scaling-stroke;
   fill: none;
   stroke: #FF0000;
}
#keylines, #mask {
   opacity: 0.5;
}
]]></style>
  <defs
     id="defs2197">
    <clipPath
       clipPathUnits="userSpaceOnUse"
       id="clipHatching">
      <rect
         width="8"
         height="8"
         x="0"
         y="0"
         id="rect2191" />
    </clipPath>
    <pattern
       patternUnits="userSpaceOnUse"
       width="8"
       height="8"
       id="hatching">
      <path
         d="M 1,-1 -1,1 M 9,7 7,9 M 9,-1 -1,9"
         clip-path="url(#clipHatching)"
         id="path2194" />
    </pattern>
  </defs>
  <g
     id="layer1"
     style="display:inline">
    <rect
       style="display:inline;opacity:1;fill:#000000;fill-opacity:1;stroke:#e4c547;stroke-width:11.339;stroke-miterlimit:3;stroke-dasharray:none;stroke-opacity:1;paint-order:normal"
       id="rect4690"
       width="336"
       height="144"
       x="88"
       y="184"
       ry="57.60001" />
  </g>
  <g
     id="layer2"
     style="display:none" />
  <g
     id="keylines"
     style="display:none">
    <circle
       cx="256"
       cy="256"
       r="80"
       id="circle2219"
       style="display:inline" />
    <circle
       cx="256"
       cy="256"
       r="176"
       id="circle2221"
       style="display:inline" />
    <rect
       width="256"
       height="352"
       x="128"
       y="80"
       ry="24"
       id="rect2223"
       style="display:inline" />
    <rect
       width="352"
       height="256"
       x="80"
       y="128"
       ry="24"
       id="rect2225"
       style="display:inline" />
    <rectn
       width="304"
       height="304"
       x="104"
       y="104"
       ry="24" />
  </g>
  <g
     id="mask"
     style="display:none">
    <path
       d="M 0,0 V 512 H 512 V 0 Z M 64,64 H 448 V 448 H 64 Z"
       style="fill:url(#hatching)"
       id="path2228" />
    <path
       d="m 256,512 c 112.1778,0 174.5778,0 215.2889,-40.7111 C 512,430.5778 512,368.1778 512,256 512,143.8222 512,81.4222 471.2889,40.7111 430.5778,0 368.1778,0 256,0 143.8222,0 81.4222,0 40.7111,40.7111 0,81.4222 0,143.8222 0,256 0,368.1778 0,430.5778 40.7111,471.2889 81.4222,512 143.8222,512 256,512 Z"
       id="path2230" />
    <circle
       cx="256"
       cy="256"
       r="256"
       id="circle2232" />
    <rect
       width="512"
       height="512"
       x="0"
       y="0"
       ry="128"
       id="rect2234" />
  </g>
</svg>
