<?xml version="1.0" encoding="UTF-8" standalone="no"?>
<svg
   xmlns:dc="http://purl.org/dc/elements/1.1/"
   xmlns:cc="http://creativecommons.org/ns#"
   xmlns:rdf="http://www.w3.org/1999/02/22-rdf-syntax-ns#"
   xmlns:svg="http://www.w3.org/2000/svg"
   xmlns="http://www.w3.org/2000/svg"
   width="512"
   height="512"
   viewBox="0 0 512 512"
   version="1.1"
   id="svg2237">
  <metadata
     id="metadata2239">
    <rdf:RDF>
      <cc:Work
         rdf:about="">
        <dc:format>image/svg+xml</dc:format>
        <dc:type
           rdf:resource="http://purl.org/dc/dcmitype/StillImage" />
        <dc:title></dc:title>
      </cc:Work>
    </rdf:RDF>
  </metadata>
  <style
     id="style2189"><![CDATA[
#keylines circle, #keylines rect { 
   vector-effect: non-scaling-stroke;
   fill: none;
   stroke: #0000FF;
}
#mask path, #mask rect, #mask circle, #hatching path { 
   vector-effect: non-scaling-stroke;
   fill: none;
   stroke: #FF0000;
}
#keylines, #mask {
   opacity: 0.5;
}
]]></style>
  <defs
     id="defs2197">
    <clipPath
       clipPathUnits="userSpaceOnUse"
       id="clipHatching">
      <rect
         width="8"
         height="8"
         x="0"
         y="0"
         id="rect2191" />
    </clipPath>
    <pattern
       patternUnits="userSpaceOnUse"
       width="8"
       height="8"
       id="hatching">
      <path
         d="M 1,-1 -1,1 M 9,7 7,9 M 9,-1 -1,9"
         clip-path="url(#clipHatching)"
         id="path2194" />
    </pattern>
  </defs>
  <g
     id="layer2"
     style="display:inline" />
  <rect
     style="display:inline;opacity:1;fill:#000000;fill-opacity:1;stroke:#e4c547;stroke-width:11.3386;stroke-miterlimit:3;stroke-dasharray:none;stroke-opacity:1;paint-order:normal"
     id="rect4690"
     width="314.93155"
     height="314.93155"
     x="98.534225"
     y="98.534225"
     ry="51.228985"
     rx="51.228985" />
  <path
     style="display:inline;fill:#afd439;fill-opacity:1;stroke:none;stroke-width:1.58453"
     d="m 282.37075,133.46402 c -6.96247,3.62764 -12.64143,12.58229 -19.30597,17.35523 -28.39957,20.33909 -54.1974,45.60575 -61.77304,80.81122 -3.97719,18.47567 -0.50864,40.07605 15.96891,51.67641 11.27236,7.93377 26.52986,8.99697 39.46601,4.79639 6.65026,-2.15814 18.17932,-11.19949 24.91043,-6.32705 5.84534,4.22911 5.25591,13.23561 5.18937,19.57377 -0.20767,20.03324 -14.20854,37.15732 -14.20854,57.0432 0.002,7.61528 5.56805,26.28899 16.94343,20.22818 8.30457,-4.42246 7.72144,-23.27049 10.60372,-31.31993 11.18363,-31.23432 17.58198,-56.71047 5.6029,-88.73386 -2.83788,-7.58521 -6.05292,-19.48345 -13.09301,-24.30358 -7.87671,-5.39204 -12.06937,10.05224 -15.29551,14.52697 -8.16986,11.32786 -28.00502,28.46142 -42.82834,19.50879 -37.01628,-22.35462 6.79763,-74.13176 28.51367,-87.9147 8.29344,-5.26443 19.13486,-8.10993 25.66946,-15.82583 5.46028,-6.44873 9.15227,-39.1798 -6.36349,-31.09521"
     id="path4693" />
</svg>
